{"title":"The Boy Next Door 2015 720p HDRip HC x264 AAC Pimp4003","uid":11684060,"size":1632634780,"categoryP":"video","categoryS":"hd___movies","magnet":"?xt=urn:btih:db5babcbf1e1f12ecaf48db9dce30eab6593f279&amp;dn=The+Boy+Next+Door+2015+720p+HDRip+HC+x264+AAC+Pimp4003&amp;tr=udp%3A%2F%2Ftracker.openbittorrent.com%3A80&amp;tr=udp%3A%2F%2Fopen.demonii.com%3A1337&amp;tr=udp%3A%2F%2Ftracker.coppersurfer.tk%3A6969&amp;tr=udp%3A%2F%2Fexodus.desync.com%3A6969","seeders":34,"leechers":0,"uploader":"shawnmurthy","files":1,"time":1423239020,"description":"SOURCE IS MP4BA....HAS ASIAN SUBS.....REMOVED SOME OF THE SUBS BUT I COULD NOT REMOVE ALL OF IT...DID THE BEST I COULD....QUALITY IS REALLY GOOD FOR BEING IN THEATERS.....ENJOY\n\nSCREENSHOTS GO HERE..pimp4003 dot net/torrents.php?id=db5babcbf1e1f12ecaf48db9dce30eab6593f279\n &lt;a href=&quot;\nhttp://i.imgur.com/SpsuXOR.png&quot; rel=&quot;nofollow&quot; target=&quot;_NEW&quot;&gt;\nhttp://i.imgur.com/SpsuXOR.png&lt;/a&gt;\n\nPIMP THE ONE AND ONLY PIMPSTER.....PRESENTS[\n\nThe Boy Next Door 2015 720p HDRip HC x264 AAC Pimp4003\n &lt;a href=&quot;\nhttp://www.imdb.com/title/tt3181822&quot; rel=&quot;nofollow&quot; target=&quot;_NEW&quot;&gt;\nhttp://www.imdb.com/title/tt3181822&lt;/a&gt;\n\nA newly divorced woman falls for a younger man who has recently moved in across the street from her, but their torrid affair soon takes a dangerous turn.\n\nDirector: Rob Cohen\nWriter: Barbara Curry\nStars: Jennifer Lopez, Ryan Guzman, Kristin Chenoweth | See full cast and crew Â»\n\nVideo\nID                                       : 1\nFormat                                   : MPEG-4 Visual\nFormat profile                           : Simple@L3\nFormat settings, BVOP                    : No\nFormat settings, QPel                    : No\nFormat settings, GMC                     : No warppoints\nFormat settings, Matrix                  : Default (H.263)\nCodec ID                                 : 20\nDuration                                 : 1h 23mn\nBit rate                                 : 2 403 Kbps\nWidth                                    : 1 280 pixels\nHeight                                   : 528 pixels\nDisplay aspect ratio                     : 2.40:1\nFrame rate mode                          : Constant\nFrame rate                               : 30.000 fps\nColor space                              : YUV\nChroma subsampling                       : 4:2:0\nBit depth                                : 8 bits\nScan type                                : Progressive\nCompression mode                         : Lossy\nBits/(Pixel*Frame)                       : 0.119\nStream size                              : 1.41 GiB (92%)\nWriting library                          : ZJMedia MPEG Encoder\n\nAudio\nID                                       : 2\nFormat                                   : AAC\nFormat/Info                              : Advanced Audio Codec\nFormat profile                           : LC\nCodec ID                                 : 40\nDuration                                 : 1h 23mn\nBit rate mode                            : Variable\nBit rate                                 : 192 Kbps\nChannel(s)                               : 2 channels\nChannel positions                        : Front: L R\nSampling rate                            : 48.0 KHz\nCompression mode                         : Lossy\nStream size                              : 115 MiB (7%)","torrent":{"xt":"urn:btih:db5babcbf1e1f12ecaf48db9dce30eab6593f279","amp;dn":"The+Boy+Next+Door+2015+720p+HDRip+HC+x264+AAC+Pimp4003","amp;tr":["udp%3A%2F%2Ftracker.openbittorrent.com%3A80","udp%3A%2F%2Fopen.demonii.com%3A1337","udp%3A%2F%2Ftracker.coppersurfer.tk%3A6969","udp%3A%2F%2Fexodus.desync.com%3A6969"],"infoHash":"db5babcbf1e1f12ecaf48db9dce30eab6593f279","infoHashBuffer":{"type":"Buffer","data":[219,91,171,203,241,225,241,46,202,244,141,185,220,227,14,171,101,147,242,121]},"announce":[],"urlList":[]}}